<?xml version="1.0" encoding="UTF-8" standalone="no"?>
<!DOCTYPE svg PUBLIC "-//W3C//DTD SVG 1.1//EN" "http://www.w3.org/Graphics/SVG/1.1/DTD/svg11.dtd">
<svg width="100%" height="100%" viewBox="0 0 800 500" version="1.1" xmlns="http://www.w3.org/2000/svg" xmlns:xlink="http://www.w3.org/1999/xlink" xml:space="preserve" xmlns:serif="http://www.serif.com/" style="fill-rule:evenodd;clip-rule:evenodd;stroke-linecap:round;stroke-linejoin:round;stroke-miterlimit:1.5;">
    <g transform="matrix(0.430739,0,0,0.430739,59.7977,107.623)">
        <circle cx="306" cy="333" r="207" style="fill:white;stroke:black;stroke-width:31.52px;"/>
    </g>
    <g transform="matrix(-0.898636,0,0,0.858248,776.111,-211.737)">
        <path d="M285,344C177.928,344 91,430.928 91,538C91,645.072 177.928,732 285,732C241.101,693.847 205.46,620.053 205.46,538C205.46,455.947 241.101,382.153 285,344Z" style="fill:white;stroke:black;stroke-width:16.72px;"/>
    </g>
    <g transform="matrix(1.11022e-16,-0.736177,0.633353,1.11022e-16,-35.1133,605.942)">
        <path d="M800,678.9C800,668.469 796.339,660 791.83,660L175.17,660C170.661,660 167,668.469 167,678.9L167,695.1C167,705.531 170.661,714 175.17,714L791.83,714C796.339,714 800,705.531 800,695.1L800,678.9Z"/>
    </g>
    <g transform="matrix(0.436402,-0.436402,0.64008,0.640079,-243.851,143.732)">
        <path d="M196,423.05C196,414.744 186.109,408 173.926,408L88.074,408C75.891,408 66,414.744 66,423.05L66,435.95C66,444.256 75.891,451 88.074,451L173.926,451C186.109,451 196,444.256 196,435.95L196,423.05Z"/>
    </g>
    <g transform="matrix(1.11022e-16,-0.617165,0.90521,1.69264e-07,-196.197,478.808)">
        <path d="M196,423.05C196,414.744 186.109,408 173.926,408L88.074,408C75.891,408 66,414.744 66,423.05L66,435.95C66,444.256 75.891,451 88.074,451L173.926,451C186.109,451 196,444.256 196,435.95L196,423.05Z"/>
    </g>
    <g transform="matrix(1.11022e-16,-0.617165,0.90521,1.69264e-07,-196.197,182.889)">
        <path d="M196,423.05C196,414.744 186.109,408 173.926,408L88.074,408C75.891,408 66,414.744 66,423.05L66,435.95C66,444.256 75.891,451 88.074,451L173.926,451C186.109,451 196,444.256 196,435.95L196,423.05Z"/>
    </g>
    <g transform="matrix(0.436402,-0.436402,0.640079,0.64008,-35.6242,-75.5893)">
        <path d="M196,423.05C196,414.744 186.109,408 173.926,408L88.074,408C75.891,408 66,414.744 66,423.05L66,435.95C66,444.256 75.891,451 88.074,451L173.926,451C186.109,451 196,444.256 196,435.95L196,423.05Z"/>
    </g>
    <g transform="matrix(0.436401,0.436401,-0.64008,0.64008,305.977,-185.012)">
        <path d="M196,423.05C196,414.744 186.109,408 173.926,408L88.074,408C75.891,408 66,414.744 66,423.05L66,435.95C66,444.256 75.891,451 88.074,451L173.926,451C186.109,451 196,444.256 196,435.95L196,423.05Z"/>
    </g>
    <g transform="matrix(0.436401,0.436401,-0.64008,0.64008,519.009,29.3942)">
        <path d="M196,423.05C196,414.744 186.109,408 173.926,408L88.074,408C75.891,408 66,414.744 66,423.05L66,435.95C66,444.256 75.891,451 88.074,451L173.926,451C186.109,451 196,444.256 196,435.95L196,423.05Z"/>
    </g>
    <g transform="matrix(0.617165,0,6.43434e-08,0.905209,252.092,-137.728)">
        <path d="M196,423.05C196,414.744 186.109,408 173.926,408L88.074,408C75.891,408 66,414.744 66,423.05L66,435.95C66,444.256 75.891,451 88.074,451L173.926,451C186.109,451 196,444.256 196,435.95L196,423.05Z"/>
    </g>
    <g transform="matrix(0.617165,-1.38778e-17,6.43434e-08,0.905209,-32.7329,-137.728)">
        <path d="M196,423.05C196,414.744 186.109,408 173.926,408L88.074,408C75.891,408 66,414.744 66,423.05L66,435.95C66,444.256 75.891,451 88.074,451L173.926,451C186.109,451 196,444.256 196,435.95L196,423.05Z"/>
    </g>
</svg>
